<svg width="537" height="559" fill="none" xmlns="http://www.w3.org/2000/svg"><path d="M341.33 128.02c7.211 4.836 12.986 11.706 16.633 19.862l65.74 145.684c3.345 7.36 4.672 15.042 4.039 22.881-.582 7.318-2.954 14.574-6.884 20.829-3.92 6.333-9.33 11.578-15.646 15.347-6.764 3.982-14.208 6.105-22.254 6.36l-159.193 4.413c-9.904.28-19.409-2.418-27.447-7.828-4.914-3.33-9.14-7.456-12.556-12.352-3.417-4.896-5.827-10.27-7.254-15.999-2.98-12.118-.949-24.679 5.723-35.383l93.497-150.062c6.74-10.791 17.179-18.146 29.478-20.695 12.445-2.645 25.611-.109 36.124 6.943zm2.126-3.107c-22.416-15.047-55.083-10.762-71.009 14.798L178.95 289.773c-15.338 24.618-6.214 54.532 15.208 68.946 8.293 5.537 18.425 8.794 29.709 8.467l159.237-4.379c35.834-.983 58.896-37.936 44.087-70.73l-65.74-145.684c-4.191-9.278-10.519-16.438-17.995-21.48z" fill="url(#paint0_linear)"/><path d="M326.725 111.85c6.039 4.065 11.164 9.309 15.277 15.586l94.506 144.376c5.063 7.786 8.049 16.337 8.761 25.359.639 8.476-.758 17.119-4.038 24.997a52.92 52.92 0 01-15.031 20.301c-6.927 5.743-15.066 9.494-24.14 11.259l-168.564 31.4c-7.267 1.35-14.441 1.302-21.409-.196-6.603-1.424-12.813-4.082-18.499-7.873-10.168-6.855-17.875-16.977-21.729-28.512-4.078-12.339-3.522-25.276 1.574-37.412L247.48 135.28c3.232-7.635 7.911-14.217 13.987-19.502 5.684-4.96 12.375-8.576 19.774-10.733 7.51-2.21 15.558-2.743 23.31-1.616 8.019 1.055 15.484 3.919 22.174 8.421zm2.116-3.185c-28.496-19.144-70.257-9.686-84.858 25.016l-74.047 175.855c-11.528 27.363-.113 56.046 21.604 70.62 11.858 7.959 26.765 11.71 42.761 8.677l168.519-31.435c40.115-7.517 59.401-53.277 36.903-87.636l-94.506-144.376c-4.561-6.975-10.161-12.518-16.376-16.721z" fill="url(#paint1_linear)"/><path d="M314.184 96.02c5.123 3.423 9.758 7.657 13.763 12.52l118.828 144.522c6.792 8.29 11.236 17.694 13.179 27.952a62.436 62.436 0 01-1.47 29.16c-2.797 9.444-7.865 18.17-14.627 25.16-7.213 7.48-16.014 12.815-26.18 15.898l-177.624 53.871c-9.251 2.815-18.745 3.482-28.015 1.944-8.781-1.439-17.053-4.72-24.526-9.76-10.73-7.223-19.199-17.726-23.893-29.634-4.963-12.746-5.554-26.573-1.568-39.92l58.796-198.392c2.912-9.774 7.845-18.326 14.718-25.369a60.702 60.702 0 0123.242-14.753c8.966-3.177 18.677-4.305 28.129-3.185 9.72 1.048 19.168 4.544 27.248 9.987zm2.116-3.184c-35.172-23.565-86.145-8.327-99.088 35.358l-58.83 198.436c-8.863 29.851 4.341 58.592 27.015 73.841 15.499 10.371 35.439 14.466 55.816 8.333l177.658-53.914c44.504-13.549 60.625-67.99 30.833-104.239L330.877 106.129c-4.379-5.294-9.279-9.733-14.577-13.293z" fill="url(#paint2_linear)"/><path d="M303.693 77.711a75.117 75.117 0 0111.47 9.548l145.548 148.777c8.412 8.569 14.249 18.636 17.393 29.898a69.512 69.512 0 011.171 32.68c-2.178 10.833-6.973 21.03-13.818 29.495-7.284 9.031-16.601 15.853-27.616 20.306l-191.432 76.987c-11.093 4.462-22.609 6.005-34.158 4.583-10.706-1.325-21.238-5.245-30.444-11.422-11.292-7.59-20.116-18.089-25.529-30.345-5.705-12.973-7.201-27.362-4.319-41.566l45.885-225.764c2.411-11.772 7.419-22.153 14.969-30.98 7.007-8.127 16.087-14.643 26.242-18.715 21.426-8.674 45.619-6.24 64.638 6.518zm2.081-3.14c-41.647-27.97-101.127-6.406-111.68 45.501L148.21 345.836c-6.424 31.535 8.115 60.193 31.516 75.867 19.019 12.757 43.882 16.973 68.134 7.206l191.432-76.987c47.978-19.311 60.578-81.242 24.118-118.547L317.828 84.642a71.751 71.751 0 00-12.054-10.071z" fill="url(#paint3_linear)"/><path d="M285.217 62.19a78.234 78.234 0 015.79 4.292l178.241 143.755c10.316 8.3 18.084 18.608 23.022 30.563 4.645 11.238 6.586 23.593 5.617 35.783-.97 12.191-4.916 24.027-11.256 34.211-6.804 10.873-16.107 19.593-27.62 25.965L260.317 445.926c-12.921 7.096-27.301 10.33-41.601 9.358-13.5-.91-26.725-5.455-38.192-13.181-11.158-7.485-20.218-17.678-26.192-29.389a76.101 76.101 0 01-6.701-19.344 77.652 77.652 0 01-1.227-21.664l20.418-252.879c1.158-14.073 5.77-26.86 13.732-37.952 7.354-10.306 17.454-18.686 29.08-24.201 11.737-5.569 24.664-8.113 37.509-7.362 13.48.754 26.617 5.23 38.074 12.878zm2.081-3.14c-50.107-33.639-119.275-2.122-124.242 59.438l-20.485 252.966c-2.576 31.583 12.837 58.469 35.804 73.877 23.619 15.844 55.311 19.632 83.773 3.977l198.727-109.21c49.841-27.372 55.484-96.732 10.797-132.805L293.386 63.503c-1.951-1.586-4.003-3.04-6.088-4.453z" fill="url(#paint4_linear)"/><defs><linearGradient id="paint0_linear" x1="587.687" y1="314.642" x2="185.886" y2="291.896" gradientUnits="userSpaceOnUse"><stop offset=".01" stop-color="#FFEF00"/><stop offset="1" stop-color="#9DE309"/></linearGradient><linearGradient id="paint1_linear" x1="610.058" y1="327.137" x2="157.101" y2="314.585" gradientUnits="userSpaceOnUse"><stop offset=".01" stop-color="#FFEF00"/><stop offset="1" stop-color="#9DE309"/></linearGradient><linearGradient id="paint2_linear" x1="633.138" y1="338.969" x2="129.462" y2="334.998" gradientUnits="userSpaceOnUse"><stop offset=".01" stop-color="#FFEF00"/><stop offset="1" stop-color="#9DE309"/></linearGradient><linearGradient id="paint3_linear" x1="662.014" y1="351.281" x2="103.319" y2="355.486" gradientUnits="userSpaceOnUse"><stop offset=".01" stop-color="#FFEF00"/><stop offset="1" stop-color="#9DE309"/></linearGradient><linearGradient id="paint4_linear" x1="681.638" y1="365.34" x2="74.573" y2="383.084" gradientUnits="userSpaceOnUse"><stop offset=".01" stop-color="#FFEF00"/><stop offset="1" stop-color="#9DE309"/></linearGradient></defs></svg>