<svg width="40" height="41" fill="none" xmlns="http://www.w3.org/2000/svg"><path d="M38.333 15.49a1.666 1.666 0 01-1.666-1.667v-7.9c0-.879-.715-1.594-1.592-1.594h-7.9a1.666 1.666 0 110-3.333h7.9A4.93 4.93 0 0140 5.923v7.9c0 .92-.745 1.666-1.667 1.666zm-36.666 0A1.666 1.666 0 010 13.822v-7.9A4.93 4.93 0 014.925.996h7.9a1.666 1.666 0 110 3.333h-7.9c-.877 0-1.592.715-1.592 1.594v7.9c0 .92-.745 1.666-1.666 1.666zm33.408 25.506h-7.9a1.666 1.666 0 110-3.333h7.9c.877 0 1.592-.715 1.592-1.593v-7.9a1.666 1.666 0 113.333 0v7.9a4.93 4.93 0 01-4.925 4.926zm-22.25 0h-7.9A4.93 4.93 0 010 36.07v-7.9a1.666 1.666 0 113.333 0v7.9c0 .879.715 1.594 1.592 1.594h7.9a1.666 1.666 0 110 3.333z" fill="#1B2226"/><path d="M15.797 19.594H7.5a1.666 1.666 0 01-1.667-1.667V8.496c0-.92.745-1.667 1.667-1.667h8.297c.921 0 1.666.747 1.666 1.667v9.431c0 .92-.746 1.667-1.666 1.667zm-6.63-3.333h4.963v-6.099H9.167v6.099zM32.5 35.163h-7.917a1.666 1.666 0 01-1.666-1.667v-5.303a1.666 1.666 0 113.333 0v3.636h4.583v-5h-1.97a1.666 1.666 0 110-3.333H32.5c.921 0 1.666.747 1.666 1.667v8.333c0 .92-.745 1.667-1.666 1.667zm0-18.183h-6.818a1.666 1.666 0 01-1.667-1.666V8.496c0-.92.745-1.667 1.667-1.667H32.5c.922 0 1.667.747 1.667 1.667v6.818c0 .92-.745 1.667-1.667 1.667zm-5.152-3.333h3.485v-3.485h-3.485v3.485z" fill="#1B2226"/><path d="M20.797 24.555H7.5a1.666 1.666 0 110-3.333h11.63V10.01a1.666 1.666 0 113.333 0v12.88c0 .92-.747 1.666-1.666 1.666zm4.619-.415a1.666 1.666 0 01-1.666-1.668v-2.271c0-.92.745-1.667 1.666-1.667h7.5a1.666 1.666 0 110 3.334h-5.833v.605c0 .92-.745 1.666-1.666 1.666zm-5.379 8.858a1.666 1.666 0 01-1.667-1.667v-3.786a1.666 1.666 0 113.333 0v3.786c0 .92-.745 1.667-1.666 1.667zm-4.62 2.165H7.5a1.666 1.666 0 01-1.667-1.667v-6.06c0-.92.745-1.666 1.667-1.666h7.917c.921 0 1.666.746 1.666 1.666v6.06c0 .92-.745 1.667-1.666 1.667zm-6.25-3.333h4.583v-2.727H9.167v2.726z" fill="#1B2226"/></svg>