<svg width="42" height="43" fill="none" xmlns="http://www.w3.org/2000/svg"><path d="M21 .996c-11.606 0-21 9.392-21 21 0 11.606 9.392 21 21 21 11.606 0 21-9.392 21-21 0-11.606-9.392-21-21-21zM31.664 36.15V25.277a1.64 1.64 0 10-3.281 0v12.835a17.58 17.58 0 01-5.742 1.527v-11.9a1.64 1.64 0 10-3.282 0v11.9a17.58 17.58 0 01-5.742-1.527V27.738a1.64 1.64 0 10-3.281 0v8.411a17.761 17.761 0 01-6.05-8.244l4.269-4.268H21a1.64 1.64 0 001.16-.48l6.223-6.224v2.602a1.64 1.64 0 103.281 0v-6.562c0-.902-.738-1.641-1.64-1.641H23.46a1.64 1.64 0 100 3.281h2.602l-5.743 5.742H7.875a1.64 1.64 0 00-1.16.481l-3.306 3.305a18.045 18.045 0 01-.128-2.145c0-9.793 7.925-17.719 17.719-17.719 9.793 0 17.719 7.925 17.719 17.72 0 5.707-2.68 10.84-7.055 14.152z" fill="#1B2226"/></svg>