<svg width="53" height="35" fill="none" xmlns="http://www.w3.org/2000/svg"><path d="M51.702 16.566C51.238 15.93 40.162.996 26.016.996 11.871.996.795 15.93.33 16.566a1.717 1.717 0 000 2.024c.465.636 11.54 15.57 25.686 15.57s25.222-14.934 25.686-15.57a1.714 1.714 0 000-2.024zM26.016 30.729c-10.42 0-19.444-9.912-22.116-13.152 2.668-3.243 11.674-13.15 22.116-13.15 10.42 0 19.444 9.91 22.116 13.152-2.668 3.243-11.674 13.15-22.116 13.15z" fill="#000"/><path d="M26.016 7.285c-5.675 0-10.292 4.617-10.292 10.293 0 5.675 4.617 10.292 10.292 10.292 5.676 0 10.293-4.617 10.293-10.293 0-5.675-4.617-10.292-10.293-10.292zm0 17.154a6.869 6.869 0 01-6.861-6.861 6.87 6.87 0 016.861-6.862 6.87 6.87 0 016.862 6.862 6.869 6.869 0 01-6.862 6.86z" fill="#000"/></svg>