<svg width="46" height="46" fill="none" xmlns="http://www.w3.org/2000/svg"><path fill-rule="evenodd" clip-rule="evenodd" d="M21.62 44.996h2.76a4.055 4.055 0 004.051-4.05v-.934c.95-.304 1.872-.687 2.759-1.145l.661.661a4.05 4.05 0 005.729 0l1.952-1.951a4.05 4.05 0 000-5.73l-.662-.661c.459-.887.842-1.809 1.145-2.759h.934A4.055 4.055 0 0045 24.377v-2.762a4.055 4.055 0 00-4.05-4.05h-.935a17.766 17.766 0 00-1.145-2.759l.662-.661a4.05 4.05 0 000-5.73l-1.951-1.95a4.05 4.05 0 00-5.73-.001l-.661.662a17.765 17.765 0 00-2.76-1.146v-.934a4.055 4.055 0 00-4.05-4.05h-2.762a4.055 4.055 0 00-4.05 4.05v.934c-.95.303-1.872.686-2.759 1.145l-.661-.662a4.05 4.05 0 00-5.729 0L6.468 8.416a4.05 4.05 0 000 5.729l.662.662a17.77 17.77 0 00-1.145 2.758H5.05A4.055 4.055 0 001 21.615v2.762a4.055 4.055 0 004.05 4.05h.935c.303.95.686 1.872 1.145 2.759l-.662.661a4.05 4.05 0 000 5.73l1.951 1.95a4.05 4.05 0 005.73.002l.661-.663a17.76 17.76 0 002.759 1.145v.935a4.055 4.055 0 004.05 4.05zm-2.44-7.202a15.192 15.192 0 01-3.939-1.635c-.623-.368-1.26-.108-1.567.198l-1.35 1.349a1.472 1.472 0 01-2.081 0L8.29 35.751a1.472 1.472 0 010-2.081l1.349-1.349a1.29 1.29 0 00.198-1.567 15.194 15.194 0 01-1.635-3.939 1.289 1.289 0 00-1.248-.967H5.05c-.812 0-1.473-.66-1.473-1.472v-2.762c0-.811.66-1.472 1.473-1.472h1.903a1.29 1.29 0 001.248-.967 15.191 15.191 0 011.635-3.939 1.29 1.29 0 00-.198-1.567L8.29 12.32a1.472 1.472 0 010-2.08l1.954-1.954a1.472 1.472 0 012.081 0l1.349 1.349a1.29 1.29 0 001.567.198 15.194 15.194 0 013.939-1.635c.57-.147.967-.66.967-1.248V5.047c0-.812.66-1.473 1.472-1.473h2.762c.812 0 1.472.66 1.472 1.473V6.95c0 .588.398 1.101.967 1.248 1.383.357 2.708.907 3.939 1.635a1.29 1.29 0 001.568-.198l1.348-1.349a1.472 1.472 0 012.082 0l1.953 1.954c.567.566.582 1.5 0 2.082l-1.35 1.348a1.29 1.29 0 00-.198 1.568 15.192 15.192 0 011.635 3.938c.147.57.66.967 1.248.967h1.904c.811 0 1.472.66 1.472 1.472v2.762c0 .812-.66 1.472-1.472 1.472h-1.904a1.29 1.29 0 00-1.248.967 15.19 15.19 0 01-1.635 3.939 1.29 1.29 0 00.198 1.567l1.35 1.35a1.472 1.472 0 01-.001 2.081l-1.953 1.953a1.473 1.473 0 01-2.082 0l-1.348-1.349a1.289 1.289 0 00-1.568-.198 15.192 15.192 0 01-3.939 1.635c-.57.147-.967.66-.967 1.248v1.904c0 .812-.66 1.472-1.472 1.472h-2.762c-.811 0-1.472-.66-1.472-1.472v-1.904a1.29 1.29 0 00-.967-1.248zm-5.753-14.798c0 5.279 4.294 9.573 9.573 9.573 5.279 0 9.574-4.294 9.574-9.573 0-5.279-4.295-9.573-9.574-9.573s-9.573 4.294-9.573 9.573zm2.578 0A7.003 7.003 0 0123 16.001a7.003 7.003 0 016.995 6.995A7.003 7.003 0 0123 29.991a7.003 7.003 0 01-6.995-6.995z" fill="#1B2226"/><path d="M28.431 40.011l-.076-.238-.174.056v.182h.25zm2.759-1.144l.176-.177-.129-.13-.162.085.115.222zm.661.661l.177-.177-.177.177zm5.729 0l-.177-.176.177.177zm1.952-1.951l-.177-.177.177.177zm0-5.73l-.176.178.176-.177zm-.662-.661l-.222-.115-.084.162.13.13.176-.177zm1.145-2.759v-.25h-.182l-.056.174.238.076zm0-10.862l-.238.076.056.174h.182v-.25zm-1.145-2.759l-.176-.176-.13.129.084.162.222-.114zm.662-.661l-.177-.177.177.177zm0-5.73l-.176.178.176-.177zm-1.951-1.95l-.177.176.177-.177zm-5.73-.001l.177.176-.176-.176zm-.661.662l-.115.222.162.084.13-.13-.177-.176zM28.43 5.98h-.25v.182l.174.056.076-.238zm-10.862 0l.076.238.174-.056V5.98h-.25zM14.81 7.126l-.176.176.129.13.162-.084-.115-.222zm-.661-.662l-.177.177.177-.177zm-5.729 0l.177.176-.177-.176zM6.468 8.416l.177.176-.177-.176zm0 5.729l.176-.177-.176.177zm.662.662l.222.114.084-.162-.13-.13-.176.178zm-1.145 2.758v.25h.182l.056-.174-.238-.076zm0 10.862l.238-.076-.056-.174h-.182v.25zm1.145 2.759l.176.177.13-.13-.084-.162-.222.115zm-.662.661l.177.177-.177-.177zm0 5.73l.176-.177-.176.176zm1.951 1.95l.177-.176-.177.177zm5.73.002l-.177-.177.176.177zm.661-.663l.115-.222-.162-.084-.13.13.177.176zm2.759 1.145h.25v-.182l-.174-.056-.076.238zM15.24 36.16l-.127.215.127-.215zm3.939 1.635l-.063.242.063-.242zm-5.506-1.437l-.177-.177.177.177zm-1.35 1.349l-.176-.177.177.177zm-2.081 0l.177-.177-.177.176zM8.29 35.751l.177-.176-.177.176zm0-2.081l.177.176-.176-.176zm1.349-1.349l-.177-.176.177.176zm.198-1.567l.215-.127-.215.127zm-1.635-3.939l.242-.062-.242.062zm-3.151-6.673v-.25.25zm3.151-.967l.242.063-.242-.063zm1.635-3.939l.215.128-.215-.128zm-.198-1.567l-.177.177.177-.177zM8.29 12.32l.177-.176-.177.177zm0-2.08l.177.176-.176-.177zm1.954-1.954l.177.177-.177-.177zm2.081 0l-.176.177.176-.176zm1.349 1.349l-.177.177.177-.177zm1.567.198l.128.215-.128-.215zm3.939-1.635l-.063-.242.063.242zm7.64 0l.063-.242-.063.242zm3.939 1.635l.127-.215-.127.215zm1.568-.198l-.177-.177.177.177zm1.348-1.349l.177.177-.177-.177zm2.082 0l-.177.178.177-.177zm1.953 1.954l-.177.177.177-.177zm0 2.082l-.177-.177.177.177zm-1.35 1.348l.177.177-.177-.177zm-.198 1.568l-.215.127.215-.127zm1.635 3.938l-.242.063.242-.063zm0 7.64l-.242-.062.242.062zm-1.635 3.939l-.215-.127.215.127zm.198 1.567l.177-.176-.177.176zm1.35 1.35l-.178.176.177-.177zm-.001 2.081l-.177-.177.177.177zm-1.953 1.953l-.177-.177.177.177zm-2.082 0l.177-.177-.177.176zm-1.348-1.349l.176-.176-.176.176zm-1.568-.198l-.128-.215.128.215zm-3.939 1.635l.063.242-.063-.242zm-2.44 6.952h-2.76v.5h2.76v-.5zm3.801-3.8c0 2.095-1.705 3.8-3.8 3.8v.5c2.371 0 4.3-1.929 4.3-4.3h-.5zm0-.934v.934h.5v-.934h-.5zm2.894-1.367c-.874.452-1.784.83-2.72 1.128l.152.477a18.031 18.031 0 002.797-1.161l-.23-.444zm.953.706l-.662-.661-.353.353.661.662.354-.354zm5.375 0a3.8 3.8 0 01-5.375 0l-.354.354a4.3 4.3 0 006.083 0l-.354-.353zm1.952-1.951l-1.952 1.952.354.353 1.952-1.951-.354-.354zm0-5.375a3.8 3.8 0 010 5.375l.354.354a4.3 4.3 0 000-6.083l-.353.354zm-.661-.662l.662.662.353-.354-.662-.662-.353.354zm1.083-3.012a17.503 17.503 0 01-1.129 2.72l.444.23c.465-.9.854-1.835 1.161-2.798l-.476-.152zm1.172-.174h-.934v.5h.934v-.5zm3.801-3.8c0 2.095-1.705 3.8-3.8 3.8v.5c2.37 0 4.3-1.929 4.3-4.3h-.5zm0-2.762v2.762h.5v-2.762h-.5zm-3.8-3.8c2.095 0 3.8 1.705 3.8 3.8h.5c0-2.371-1.93-4.3-4.3-4.3v.5zm-.935 0h.934v-.5h-.934v.5zm-1.367-2.894c.452.874.83 1.784 1.13 2.72l.475-.152a18.01 18.01 0 00-1.16-2.797l-.445.23zm.707-.953l-.661.662.353.353.662-.661-.354-.354zm0-5.375a3.8 3.8 0 010 5.375l.354.354a4.3 4.3 0 000-6.083l-.353.354zM37.405 6.64l1.952 1.952.353-.354-1.952-1.951-.353.353zm-5.376 0a3.8 3.8 0 015.376 0l.354-.353c-1.653-1.655-4.38-1.706-6.083-.001l.354.353zm-.662.662l.662-.663-.353-.353-.662.662.353.354zm-3.01-1.084c.935.299 1.845.677 2.719 1.129l.23-.444a18.014 18.014 0 00-2.798-1.161l-.152.476zm-.175-1.172v.934h.5v-.934h-.5zm-3.8-3.8c2.095 0 3.8 1.704 3.8 3.8h.5c0-2.372-1.929-4.3-4.3-4.3v.5zm-2.762 0h2.762v-.5H21.62v.5zm-3.8 3.8c0-2.096 1.705-3.8 3.8-3.8v-.5a4.305 4.305 0 00-4.3 4.3h.5zm0 .934v-.934h-.5v.934h.5zm-2.894 1.367c.874-.452 1.784-.83 2.72-1.13l-.152-.475c-.963.307-1.899.696-2.797 1.16l.23.445zm-.953-.707l.662.661.353-.353-.661-.662-.354.354zm-5.375 0a3.8 3.8 0 015.375 0l.354-.353a4.3 4.3 0 00-6.083-.001l.354.353zM6.645 8.591L8.597 6.64l-.354-.353-1.952 1.952.354.353zm0 5.376a3.8 3.8 0 010-5.376L6.29 8.24a4.3 4.3 0 000 6.082l.353-.353zm.661.662l-.662-.662-.353.353.662.662.353-.353zm-1.083 3.01c.299-.935.676-1.845 1.129-2.719l-.444-.23a18.02 18.02 0 00-1.161 2.798l.476.152zm-1.172.175h.934v-.5H5.05v.5zm-3.801 3.8c0-2.095 1.705-3.8 3.8-3.8v-.5a4.305 4.305 0 00-4.3 4.3h.5zm0 2.762v-2.762h-.5v2.762h.5zm3.8 3.8a3.805 3.805 0 01-3.8-3.8h-.5c0 2.371 1.93 4.3 4.3 4.3v-.5zm.935 0H5.05v.5h.935v-.5zm1.367 2.894a17.513 17.513 0 01-1.13-2.72l-.476.152c.308.963.696 1.899 1.162 2.798l.444-.23zm-.707.953l.661-.662-.353-.353-.662.661.354.354zm0 5.375a3.8 3.8 0 010-5.375l-.354-.354a4.3 4.3 0 000 6.083l.353-.354zm1.951 1.952L6.644 37.4l-.353.353 1.951 1.952.354-.354zm5.375 0a3.8 3.8 0 01-5.375 0l-.354.354c1.653 1.654 4.38 1.705 6.083 0l-.354-.353zm.663-.661l-.662.662.353.353.662-.662-.353-.353zm3.01 1.083a17.51 17.51 0 01-2.719-1.129l-.23.445c.9.465 1.835.853 2.798 1.16l.152-.476zm.175 1.173v-.935h-.5v.935h.5zm3.8 3.8a3.805 3.805 0 01-3.8-3.8h-.5c0 2.371 1.929 4.3 4.3 4.3v-.5zm-6.505-8.372c1.252.74 2.598 1.3 4.003 1.662l.125-.484a14.943 14.943 0 01-3.873-1.608l-.255.43zm-1.264.16c.25-.25.766-.454 1.264-.16l.255-.43c-.75-.443-1.51-.126-1.872.236l.353.354zm-1.348 1.349l1.348-1.35-.353-.353-1.349 1.35.354.353zm-2.436 0a1.722 1.722 0 002.436 0l-.354-.354a1.222 1.222 0 01-1.728 0l-.354.353zm-1.953-1.954l1.953 1.953.354-.353-1.953-1.953-.354.353zm0-2.435a1.722 1.722 0 000 2.435l.354-.353a1.222 1.222 0 010-1.729l-.353-.353zm1.349-1.348l-1.348 1.348.353.353L9.816 32.5l-.354-.353zm.16-1.264a1.04 1.04 0 01-.16 1.264l.354.353a1.54 1.54 0 00.236-1.872l-.43.255zM7.96 26.879a15.446 15.446 0 001.662 4.003l.43-.255a14.943 14.943 0 01-1.608-3.873l-.484.125zm-1.006-.78c.474 0 .887.32 1.006.78l.484-.125a1.54 1.54 0 00-1.49-1.155v.5zm-1.903 0h1.903v-.5H5.05v.5zm-1.723-1.722c0 .95.773 1.722 1.723 1.722v-.5a1.224 1.224 0 01-1.223-1.222h-.5zm0-2.762v2.762h.5v-2.762h-.5zm1.723-1.722c-.95 0-1.723.772-1.723 1.722h.5c0-.673.549-1.222 1.223-1.222v-.5zm1.903 0H5.05v.5h1.903v-.5zm1.006-.78c-.118.46-.532.78-1.006.78v.5a1.54 1.54 0 001.49-1.155l-.484-.125zm1.662-4.003a15.443 15.443 0 00-1.662 4.003l.484.125a14.957 14.957 0 011.608-3.873l-.43-.255zm-.16-1.263c.335.335.401.855.16 1.263l.43.255a1.539 1.539 0 00-.236-1.872l-.354.354zm-1.349-1.35l1.35 1.35.353-.354-1.35-1.349-.353.354zm0-2.435a1.722 1.722 0 000 2.436l.354-.354a1.222 1.222 0 010-1.728l-.353-.354zm1.954-1.953l-1.953 1.953.353.354 1.954-1.953-.354-.354zm2.435.001a1.722 1.722 0 00-2.435 0l.354.353a1.222 1.222 0 011.728 0l.353-.353zm1.348 1.348L12.502 8.11l-.353.353 1.348 1.349.353-.354zm1.264.16a1.04 1.04 0 01-1.264-.16l-.353.354a1.54 1.54 0 001.872.236l-.255-.43zm4.003-1.662a15.445 15.445 0 00-4.003 1.662l.255.43a14.944 14.944 0 013.873-1.608l-.125-.484zm.78-1.006c0 .474-.32.888-.78 1.006l.125.484a1.539 1.539 0 001.155-1.49h-.5zm0-1.903V6.95h.5V5.047h-.5zm1.722-1.723c-.95 0-1.722.773-1.722 1.723h.5c0-.674.549-1.223 1.222-1.223v-.5zm2.762 0h-2.762v.5h2.762v-.5zm1.722 1.723c0-.95-.772-1.723-1.722-1.723v.5c.674 0 1.222.549 1.222 1.223h.5zm0 1.903V5.047h-.5V6.95h.5zm.78 1.006a1.039 1.039 0 01-.78-1.006h-.5c0 .702.475 1.315 1.155 1.49l.125-.484zm4.003 1.662a15.444 15.444 0 00-4.003-1.662l-.125.484a14.95 14.95 0 013.874 1.608l.254-.43zm1.264-.16a1.039 1.039 0 01-1.264.16l-.254.43c.604.358 1.375.26 1.871-.236l-.353-.354zm1.349-1.348l-1.35 1.348.354.354 1.35-1.349-.355-.353zm2.435 0a1.722 1.722 0 00-2.436 0l.354.353a1.222 1.222 0 011.728 0l.354-.353zm1.953 1.953L35.934 8.11l-.354.354 1.953 1.953.354-.354zm0 2.435a1.722 1.722 0 000-2.435l-.354.354c.471.47.483 1.245 0 1.728l.353.354zm-1.349 1.349l1.348-1.349-.353-.353-1.349 1.348.354.354zm-.16 1.263a1.04 1.04 0 01.16-1.263l-.353-.354a1.54 1.54 0 00-.237 1.872l.43-.255zm1.662 4.004a15.445 15.445 0 00-1.662-4.004l-.43.255a14.942 14.942 0 011.608 3.874l.484-.125zm1.006.78a1.04 1.04 0 01-1.006-.78l-.484.125a1.54 1.54 0 001.49 1.154v-.5zm1.904 0h-1.904v.5h1.904v-.5zm1.722 1.721c0-.95-.773-1.722-1.722-1.722v.5c.673 0 1.222.549 1.222 1.222h.5zm0 2.762v-2.762h-.5v2.762h.5zm-1.722 1.722c.95 0 1.722-.772 1.722-1.722h-.5c0 .674-.549 1.222-1.222 1.222v.5zm-1.904 0h1.904v-.5h-1.904v.5zm-1.006.78c.119-.46.532-.78 1.006-.78v-.5a1.54 1.54 0 00-1.49 1.155l.484.125zm-1.662 4.003c.74-1.251 1.3-2.598 1.662-4.003l-.484-.125a14.94 14.94 0 01-1.608 3.873l.43.255zm.16 1.264a1.04 1.04 0 01-.16-1.264l-.43-.255a1.54 1.54 0 00.236 1.872l.354-.353zm1.349 1.349l-1.349-1.35-.353.354 1.348 1.349.354-.353zm0 2.435a1.722 1.722 0 000-2.436l-.354.354c.484.484.47 1.259 0 1.728l.353.354zm-1.954 1.953l1.953-1.953-.353-.354-1.953 1.953.353.354zm-2.435 0c.68.68 1.772.664 2.435 0l-.353-.354a1.222 1.222 0 01-1.728 0l-.354.353zm-1.348-1.349l1.348 1.348.354-.353-1.349-1.349-.353.354zm-1.264-.16a1.04 1.04 0 011.264.16l.353-.353a1.539 1.539 0 00-1.872-.237l.255.43zm-4.003 1.662a15.444 15.444 0 004.003-1.662l-.255-.43a14.943 14.943 0 01-3.873 1.608l.125.484zm-.78 1.006c0-.474.32-.887.78-1.006l-.125-.484a1.54 1.54 0 00-1.155 1.49h.5zm0 1.904v-1.904h-.5v1.904h.5zm-1.722 1.722c.95 0 1.722-.773 1.722-1.722h-.5c0 .673-.548 1.222-1.222 1.222v.5zm-2.762 0h2.762v-.5h-2.762v.5zm-1.722-1.722c0 .95.772 1.722 1.722 1.722v-.5a1.224 1.224 0 01-1.222-1.222h-.5zm0-1.904v1.904h.5v-1.904h-.5zm-.78-1.006c.46.119.78.532.78 1.006h.5a1.54 1.54 0 00-1.155-1.49l-.125.484zM23 32.32c-5.14 0-9.323-4.182-9.323-9.323h-.5c0 5.417 4.406 9.823 9.823 9.823v-.5zm9.324-9.323c0 5.14-4.183 9.323-9.324 9.323v.5c5.417 0 9.824-4.406 9.824-9.823h-.5zM23 13.673c5.14 0 9.324 4.182 9.324 9.323h.5c0-5.417-4.407-9.823-9.824-9.823v.5zm-9.323 9.323c0-5.14 4.182-9.323 9.323-9.323v-.5c-5.417 0-9.823 4.406-9.823 9.823h.5zM23 15.751c-3.995 0-7.245 3.25-7.245 7.245h.5A6.753 6.753 0 0123 16.251v-.5zm7.245 7.245c0-3.995-3.25-7.245-7.245-7.245v.5a6.753 6.753 0 016.745 6.745h.5zM23 30.241c3.995 0 7.245-3.25 7.245-7.245h-.5A6.753 6.753 0 0123 29.741v.5zm-7.245-7.245c0 3.995 3.25 7.245 7.245 7.245v-.5a6.753 6.753 0 01-6.745-6.745h-.5z" fill="#1B2226"/></svg>