<svg width="46" height="46" fill="none" xmlns="http://www.w3.org/2000/svg"><path d="M18.06 42.068l2.841-2.841a2.866 2.866 0 000-4.047 2.866 2.866 0 00-1.155-.702 2.863 2.863 0 00-.678-2.964c-.42-.42-.939-.68-1.481-.785a2.878 2.878 0 00-.81-2.424 2.827 2.827 0 00-.862-.592l1.642-1.643c1.08-1.081 1.08-2.966 0-4.046-.54-.54-1.26-.84-2.024-.84s-1.483.3-2.024.84L6.5 29.034V27.58a4.59 4.59 0 00-4.583-4.584.917.917 0 00-.917.917v11.091c0 5.51 4.483 9.992 9.992 9.992a9.936 9.936 0 007.068-2.928zM2.834 35.004V24.985a2.757 2.757 0 011.833 2.595v3.666a.917.917 0 001.566.65l8.572-8.574a1.02 1.02 0 011.452 0 1.056 1.056 0 010 1.454L10.435 30.6a.917.917 0 001.298 1.296l2.291-2.292c.193-.194.453-.3.726-.3.274 0 .532.106.726.3a1.052 1.052 0 010 1.454l-1.375 1.375a.917.917 0 001.298 1.296l.917-.916c.193-.195.453-.301.726-.301a1.028 1.028 0 01.726 1.755l-.917.916a.917.917 0 001.297 1.296 1.028 1.028 0 111.453 1.454l-2.841 2.842a8.106 8.106 0 01-5.768 2.389c-4.499 0-8.158-3.66-8.158-8.159z" fill="#1B2226" stroke="#1B2226" stroke-width=".7"/><path d="M45 27.58v-22A4.59 4.59 0 0040.417.995H5.583A4.59 4.59 0 001 5.58v14.667a.917.917 0 001.833 0V5.58a2.753 2.753 0 012.75-2.75h34.834a2.753 2.753 0 012.75 2.75v22a2.753 2.753 0 01-2.75 2.75H22.083a.917.917 0 000 1.834h18.334A4.59 4.59 0 0045 27.579z" fill="#1B2226" stroke="#1B2226" stroke-width=".7"/><path d="M10.166 22.08V1.912a.917.917 0 00-1.833 0v20.166a.917.917 0 001.833 0zM6.5 18.413v-3.667a.917.917 0 00-1.833 0v3.667a.917.917 0 001.833 0zm33-12.834a.917.917 0 101.833 0 .917.917 0 00-1.833 0z" fill="#1B2226" stroke="#1B2226" stroke-width=".7"/></svg>