<svg width="50" height="50" fill="none" xmlns="http://www.w3.org/2000/svg"><path d="M45.775 13.001A23.832 23.832 0 0031.21 1.824 23.831 23.831 0 0013.005 4.22 23.832 23.832 0 001.828 18.787a23.833 23.833 0 002.396 18.204 23.833 23.833 0 0014.567 11.177 23.849 23.849 0 0018.204-2.397 23.832 23.832 0 0011.177-14.566 23.832 23.832 0 00-2.397-18.204zM45.76 30.56a21.35 21.35 0 01-10.014 13.05 21.351 21.351 0 01-16.308 2.146 21.35 21.35 0 01-13.05-10.013 21.35 21.35 0 01-2.146-16.308 21.351 21.351 0 0110.013-13.05 21.365 21.365 0 0116.308-2.147 21.35 21.35 0 0113.05 10.013A21.35 21.35 0 0145.76 30.56z" fill="#1B2226" stroke="#1B2226" stroke-width=".5"/><path d="M36.51 22.732l-15.424-8.905a2.588 2.588 0 00-2.614 0 2.588 2.588 0 00-1.307 2.264v17.81c0 .946.488 1.792 1.307 2.265.41.236.858.354 1.307.354a2.61 2.61 0 001.307-.354l15.425-8.906a2.588 2.588 0 001.307-2.264 2.59 2.59 0 00-1.307-2.264zm-1.249 2.365l-15.424 8.905a.103.103 0 01-.116 0c-.058-.033-.058-.079-.058-.1v-17.81c0-.023 0-.068.058-.101a.117.117 0 01.06-.018c.026 0 .045.011.056.018l15.424 8.905c.02.01.058.034.058.1 0 .067-.039.09-.058.1zM39.747 13.6c-2.97-3.838-7.437-6.417-12.253-7.075a1.25 1.25 0 00-.338 2.476 16.321 16.321 0 0110.616 6.128 1.247 1.247 0 001.752.223 1.25 1.25 0 00.223-1.752z" fill="#1B2226" stroke="#1B2226" stroke-width=".5"/></svg>