<svg width="417" height="567" fill="none" xmlns="http://www.w3.org/2000/svg"><g filter="url(#filter0_f)"><path d="M445.113 331.906c-3.516 8.365-9.468 15.6-17.223 20.853l-138.391 94.44c-6.987 4.795-14.744 7.551-23.084 8.296-7.785.704-15.889-.465-23.279-3.433-7.469-2.943-14.119-7.631-19.42-13.525-5.618-6.322-9.437-13.684-11.429-22.006L173.526 251.76c-2.417-10.251-1.631-20.618 2.308-29.946 2.432-5.706 5.844-10.84 10.236-15.269s9.5-7.897 15.191-10.407c12.045-5.267 25.629-5.403 38.264-.38l177.124 70.383c12.741 5.078 22.678 14.619 27.984 26.954 5.438 12.469 5.607 26.616.48 38.811zm3.708 1.655c10.943-26.006-.548-59.212-30.718-71.201l-177.125-70.383c-29.057-11.546-58.412 3.296-68.906 28.154-4.017 9.616-5.253 20.736-2.49 32.414l38.733 164.822c8.714 37.091 52.34 54.463 83.49 33.193l138.391-94.441c8.814-6.019 14.951-13.881 18.625-22.558z" fill="url(#paint0_linear)"/><path d="M459.215 313.762c-2.962 7.012-7.354 13.284-13.045 18.687L315.248 456.64c-7.068 6.663-15.382 11.301-24.678 13.657-8.74 2.183-18.091 2.277-27.046.274a58.972 58.972 0 01-24.485-12.006c-7.502-6.179-13.176-13.977-16.971-23.103l-69.056-169.781c-2.972-7.321-4.461-14.794-4.387-22.314.074-7.125 1.525-14.063 4.275-20.659 4.998-11.808 13.944-21.64 25.197-27.715 12.048-6.453 25.715-8.191 39.518-5.062l200.058 45.565c8.69 1.997 16.586 5.686 23.425 11.063 6.414 5.026 11.637 11.342 15.484 18.654a58.901 58.901 0 016.693 23.967 52.896 52.896 0 01-4.06 24.582zm3.789 1.631c13.935-33.08-4.931-74.842-44.407-83.823L218.54 186.006c-31.131-7.096-58.72 9.918-69.323 35.126-5.791 13.763-6.52 29.947.088 46.049l69.082 169.729c16.481 40.397 68.542 52.271 99.697 22.709l130.922-124.192c6.327-5.994 10.931-12.814 13.998-20.034z" fill="url(#paint1_linear)"/><path d="M473.384 297.833c-2.486 5.946-5.927 11.529-10.162 16.569L337.32 463.983c-7.226 8.555-16.124 14.865-26.455 18.726-9.668 3.611-20.372 4.912-30.865 3.692-10.493-1.219-20.724-4.933-29.498-10.72-9.385-6.168-16.863-14.374-22.276-24.404l-94.566-175.25c-4.935-9.126-7.672-18.89-8.05-28.815-.378-9.398 1.284-18.596 4.96-27.278 5.264-12.463 14.45-23.16 25.917-30.18 12.289-7.449 26.647-10.541 41.486-8.783l220.468 25.67c10.864 1.28 20.882 4.884 29.736 10.777 8.245 5.513 15.325 12.922 20.445 21.552 5.253 8.764 8.52 18.67 9.376 28.71.988 10.306-.647 20.767-4.614 30.153zm3.79 1.632c17.138-40.833-9.767-91.165-58.313-96.813l-220.52-25.698c-33.176-3.879-60.453 15.014-71.561 41.348-7.538 17.992-7.548 39.482 3.252 59.595l94.619 175.278c23.747 43.9 84.243 50.93 115.824 13.426L466.377 317.02c4.606-5.506 8.205-11.402 10.797-17.555z" fill="url(#paint2_linear)"/><path d="M490.541 283.605a75.965 75.965 0 01-7.542 13.654L358.34 475.466c-7.174 10.295-16.47 18.177-27.596 23.468-10.438 4.99-22.203 7.453-33.996 7.074a75.79 75.79 0 01-33.876-9.103c-11.029-5.967-20.178-14.447-27.209-25.118L113.88 286.251c-7.057-10.751-11.147-22.466-12.137-34.747-.91-11.384.936-23.053 5.433-33.746 5.529-13.117 14.637-24.186 26.318-32.018 12.37-8.265 27.128-12.401 42.632-11.945l246.441 7.329c12.853.402 24.808 3.757 35.678 10.036 10.022 5.841 18.8 14.128 25.248 23.971 13.69 20.756 16.333 46.384 7.048 68.474zm3.738 1.604c20.369-48.376-15.001-106.446-71.662-108.135l-246.442-7.329c-34.426-1.038-61.335 19.234-72.737 46.409-9.285 22.089-8.363 48.733 7.078 72.236l121.783 185.536c30.538 46.498 98.145 48.522 129.409 3.874l124.605-178.235c3.283-4.615 5.929-9.426 7.966-14.356z" fill="url(#paint3_linear)"/><path d="M503.207 261.523a78.807 78.807 0 01-3.256 6.801l-112.42 211.433c-6.486 12.232-15.623 22.172-27.096 29.458-10.784 6.853-23.319 11.09-36.308 12.265-12.988 1.174-26.244-.814-38.282-5.593-12.861-5.139-24.001-13.267-33.154-24.117L95.564 304.365c-10.215-12.188-16.694-26.588-18.747-41.657a80.366 80.366 0 015.614-42.146c5.45-12.965 14.19-24.229 25.185-32.551 5.749-4.327 12.082-7.826 18.84-10.447a82.166 82.166 0 0122.448-5.161l269.495-24.055c15.003-1.317 29.399 1.195 42.737 7.502 12.384 5.812 23.339 14.832 31.619 25.953 8.358 11.228 13.802 24.237 15.774 37.753 2.105 14.176.234 28.663-5.322 41.967zm3.739 1.605c24.502-58.223-23.396-124.624-89.001-118.764l-269.6 24.001c-33.664 2.978-58.54 23.851-69.759 50.537-11.537 27.443-8.701 61.134 13.825 87.976l157.18 187.432c39.401 47.012 113.329 40.457 141.546-12.556l112.448-211.486c1.244-2.316 2.329-4.714 3.361-7.14z" fill="url(#paint4_linear)"/></g><defs><linearGradient id="paint0_linear" x1="302.606" y1="621.514" x2="254.571" y2="197.945" gradientUnits="userSpaceOnUse"><stop offset=".01" stop-color="#FFEF00"/><stop offset="1" stop-color="#9DE309"/></linearGradient><linearGradient id="paint1_linear" x1="294.548" y1="647.138" x2="226.674" y2="171.247" gradientUnits="userSpaceOnUse"><stop offset=".01" stop-color="#FFEF00"/><stop offset="1" stop-color="#9DE309"/></linearGradient><linearGradient id="paint2_linear" x1="287.324" y1="673.367" x2="201.337" y2="145.422" gradientUnits="userSpaceOnUse"><stop offset=".01" stop-color="#FFEF00"/><stop offset="1" stop-color="#9DE309"/></linearGradient><linearGradient id="paint3_linear" x1="280.793" y1="705.722" x2="176.322" y2="121.175" gradientUnits="userSpaceOnUse"><stop offset=".01" stop-color="#FFEF00"/><stop offset="1" stop-color="#9DE309"/></linearGradient><linearGradient id="paint4_linear" x1="270.549" y1="728.794" x2="143.08" y2="95.285" gradientUnits="userSpaceOnUse"><stop offset=".01" stop-color="#FFEF00"/><stop offset="1" stop-color="#9DE309"/></linearGradient><filter id="filter0_f" x="61.951" y="134.002" width="461.508" height="401.881" filterUnits="userSpaceOnUse" color-interpolation-filters="sRGB"><feFlood flood-opacity="0" result="BackgroundImageFix"/><feBlend in="SourceGraphic" in2="BackgroundImageFix" result="shape"/><feGaussianBlur stdDeviation="5" result="effect1_foregroundBlur"/></filter></defs></svg>