<svg width="154" height="155" fill="none" xmlns="http://www.w3.org/2000/svg"><path fill-rule="evenodd" clip-rule="evenodd" d="M38.192.676h77.616C136.752.676 154 17.924 154 38.868v77.616c0 20.944-17.248 38.192-38.192 38.192H38.192C17.248 154.676 0 137.428 0 116.484V38.868C0 17.924 17.248.676 38.192.676zm29.701 30.39l10.137 4.37 36.957 23.144c3.696 2.054 5.749 6.16 5.749 10.267 0 1.935-.365 3.87-1.137 5.633-.163.177-.332.353-.505.527l-6.944 6.866-35.355 25.577c-2.054 1.642-4.518 2.464-7.392 2.464-6.16 0-12.32-4.518-12.731-12.32l-1.643-53.387c0-3.285 1.232-6.57 3.286-9.035 2.874-2.464 6.16-4.106 9.445-4.106h.133zm58.289 32.957c-.155-6.474-3.837-12.804-10.374-15.71l-22.15-9.547 20.507 6.262c5.339 1.643 9.856 5.75 11.499 11.499.759 2.465.904 5.018.518 7.496zm-15.267 22.745l-26.728 26.431c-3.285 3.285-7.803 4.928-11.91 4.928-4.883 0-9.767-2.091-13.14-5.771 1.343 2.507 3.23 4.676 5.338 6.181 2.874 2.054 6.16 3.286 9.856 3.286 5.338 0 9.856-2.054 13.141-6.16l23.443-28.895zm-57.767 7.409l-8.796-46.685c-2.03-9.138 3.75-17.161 11.593-19.7a10.362 10.362 0 00-.505-.012c-5.339 0-10.267 2.464-13.552 6.981-3.285 4.518-4.107 9.856-2.464 15.195l13.724 44.22zm61.839-56.13l-42.4-8.882 42.81 13.399c9.228 2.595 14.608 11.467 13.867 20.36.448-1.388.727-2.822.917-4.344.411-2.875 0-6.16-1.232-9.035s-2.874-5.339-5.338-7.392-5.339-3.285-8.624-4.107zM36.96 50.776c-3.848-12.312 4.561-24.264 16.108-25.723-1-.15-2.088-.15-2.967-.15-6.57 0-12.32 3.286-16.016 8.625-3.696 5.339-4.517 11.91-2.053 18.07l22.343 55.679-17.415-56.5zm20.944 65.296l-.14-.347c3.738 5.842 10.022 8.971 16.567 8.971 5.75 0 11.088-2.464 15.194-7.392l22.84-28.15-20.376 30.203c-3.696 5.339-9.445 8.624-16.016 8.624-3.696 0-7.392-1.232-10.677-2.874-3.285-2.054-5.75-5.339-7.392-9.035zm20.123-6.57l22.39-16.027-18.284 18.08c-2.874 2.875-6.57 4.107-10.266 4.107-3.285 0-6.57-1.232-9.035-3.285-1.423-1.017-2.544-2.336-3.413-3.807 2.724 2.404 6.26 3.807 9.984 3.807 2.874 0 6.16-.822 8.624-2.875zM52.565 44.207l1.228 39.906-6.977-37.031c-.821-4.518.41-8.624 2.875-11.91 3.285-3.696 7.392-5.749 11.498-5.749.472 0 .944.022 1.41.065-5.893 2.082-10.355 7.645-10.034 14.719zm62.011 6.981L92.5 41.672l23.719 14.855c4.117 2.62 6.443 6.776 6.94 11.106.37-1.837.374-3.768.041-5.767-.821-4.928-4.106-8.624-8.624-10.678zM40.694 24.177C30.819 28.95 25.192 40.933 29.979 52.42l21.975 53.908-27.725-50.212c-4.106-6.982-3.696-14.784 0-21.355 3.748-5.997 9.549-9.941 16.465-10.584zm9.349-2.147l-4.87-.41c-.821-.411-1.642-.411-2.464-.411-18.069 0-29.978 19.712-20.944 36.139l36.96 66.938c4.518 8.214 12.731 12.731 21.355 12.731s17.248-4.517 21.355-13.141l26.381-51.722 1.955-2.897a22.862 22.862 0 003.073-6.966c7.426-15.118-2.808-33.294-19.5-34.922l-61.925-5.223a8.83 8.83 0 00-1.318-.116h-.058zm22.826 4.593l40.064 3.62c3.696.411 6.982 1.643 10.267 3.697 2.875 2.053 5.339 4.517 6.981 7.392 1.643 2.874 2.464 6.57 2.875 9.856 0 .348-.007.692-.022 1.034-1.706-8.058-7.822-14.938-16.815-16.64l-43.35-8.959zm43.952 61.83L94.864 121c-4.107 6.571-11.088 9.856-18.07 9.856-4.697 0-9.273-1.462-13.063-4.254 4.157 4.803 9.98 7.539 16.349 7.539 4.107 0 7.803-.821 11.088-2.874 3.285-2.054 6.16-4.928 8.213-8.624l17.44-34.191z" fill="url(#paint0_linear)"/><defs><linearGradient id="paint0_linear" x1="226.221" y1=".676" x2="34.214" y2="151.353" gradientUnits="userSpaceOnUse"><stop offset=".01" stop-color="#FFEF00"/><stop offset="1" stop-color="#9DE309"/></linearGradient></defs></svg>