<svg width="138" height="38" fill="none" xmlns="http://www.w3.org/2000/svg"><g clip-path="url(#clip0)" filter="url(#filter0_d)" fill="#fff"><path d="M21.483 9.27a5.68 5.68 0 00-4.178 1.813 5.646 5.646 0 00-1.487 4.295 4.474 4.474 0 001.186 3.554 4.498 4.498 0 003.476 1.419 5.681 5.681 0 004.25-1.773 5.647 5.647 0 001.524-4.335 4.5 4.5 0 00-1.231-3.588 4.528 4.528 0 00-3.54-1.385zm21.522 0a5.842 5.842 0 00-4.274 1.947 5.807 5.807 0 00-1.445 4.459 4.53 4.53 0 001.173 3.59 4.553 4.553 0 003.49 1.464 5.788 5.788 0 004.275-1.863 5.753 5.753 0 001.498-4.407 4.609 4.609 0 00-1.165-3.673 4.635 4.635 0 00-3.552-1.516z"/><path d="M119.607 23.973h-3.388l-3.795-17.946h4.662l2.168 11.135L129.148 0H77.647l-.76 3.946h-4.336L73.228 0H9.72L4 30h10.056a7.582 7.582 0 01-2.774-2.505 7.553 7.553 0 01-1.237-3.522h4.96c.23.87.756 1.634 1.487 2.161a3.912 3.912 0 002.525.73 6.545 6.545 0 004.282-1.35 5.699 5.699 0 001.6-2.703 7.17 7.17 0 01-4.771 1.46c-2.13.029-4.2-.71-5.828-2.082a8.086 8.086 0 01-2.71-6.54 9.947 9.947 0 013.063-7.54 9.937 9.937 0 016.966-2.704 6.631 6.631 0 016.072 2.703l.433-2.19h3.958l-3.199 16.623a10.395 10.395 0 01-3.008 5.891A8.841 8.841 0 0123.164 30h104.9l6.044-30-14.501 23.973zm-73.484 0l.19-1.054a7.033 7.033 0 01-4.88 1.649 8.526 8.526 0 01-5.61-2.027 8.33 8.33 0 01-2.71-6.703 10.538 10.538 0 013.008-7.73 9.937 9.937 0 016.884-2.703 6.685 6.685 0 016.153 2.703l.434-2.19h4.012L50.08 23.974h-3.957zm20.817-3.81l-.596 3.81H52.465l.76-3.81L63.09 9.837h-7.264l.759-3.811h12.468l-.759 3.81-9.73 10.325h8.375zm1.6 3.81l3.523-17.946h4.31l-3.497 17.946H68.54zM91.172 9.838l-9.84 10.324h8.376l-.732 3.811H75.234l.76-3.81 9.839-10.325h-7.237l.758-3.811h12.578l-.76 3.81zm17.049 11.973a9.782 9.782 0 01-3.314 2.083 9.816 9.816 0 01-3.869.62 8.778 8.778 0 01-6.478-2.325 8.457 8.457 0 01-2.413-6.297 10.782 10.782 0 013.063-7.784 9.926 9.926 0 017.265-2.703 8.478 8.478 0 016.424 2.352 8.425 8.425 0 012.385 6.216 11.09 11.09 0 01-3.063 7.838z"/><path d="M102.232 9.27a5.437 5.437 0 00-4.147 1.784 6.772 6.772 0 00-1.6 4.621 5.394 5.394 0 001.112 3.514 4.281 4.281 0 003.605 1.54 5.433 5.433 0 004.147-1.81 6.587 6.587 0 001.654-4.595 5.397 5.397 0 00-1.166-3.514 4.365 4.365 0 00-3.605-1.54z"/></g><defs><clipPath id="clip0"><path fill="#fff" transform="translate(4)" d="M0 0h130v30H0z"/></clipPath><filter id="filter0_d" x="0" y="0" width="138" height="38" filterUnits="userSpaceOnUse" color-interpolation-filters="sRGB"><feFlood flood-opacity="0" result="BackgroundImageFix"/><feColorMatrix in="SourceAlpha" values="0 0 0 0 0 0 0 0 0 0 0 0 0 0 0 0 0 0 127 0" result="hardAlpha"/><feOffset dy="4"/><feGaussianBlur stdDeviation="2"/><feComposite in2="hardAlpha" operator="out"/><feColorMatrix values="0 0 0 0 0 0 0 0 0 0 0 0 0 0 0 0 0 0 0.25 0"/><feBlend in2="BackgroundImageFix" result="effect1_dropShadow"/><feBlend in="SourceGraphic" in2="effect1_dropShadow" result="shape"/></filter></defs></svg>