<svg width="60" height="61" fill="none" xmlns="http://www.w3.org/2000/svg"><path d="M59.258 28.883c-5.422-6.644-16.901-14.399-29.43-14.399-12.573 0-24.053 7.807-29.43 14.4-.53.65-.53 1.587 0 2.238 5.55 6.805 17.057 14.399 29.43 14.399 12.813 0 24.244-8.043 29.43-14.399a1.773 1.773 0 000-2.239zm-17.51 1.12c0 6.61-5.348 11.988-11.92 11.988S17.91 36.613 17.91 30.003c0-6.61 5.347-11.989 11.92-11.989 6.572 0 11.918 5.379 11.918 11.989zm-37.623 0c1.975-2.064 6.736-6.52 13.42-9.38a15.55 15.55 0 00-.001 18.756c-5.083-2.166-9.804-5.59-13.42-9.376zm37.986 9.379a15.55 15.55 0 00.002-18.756c5.082 2.166 9.803 5.59 13.419 9.376-1.975 2.065-6.737 6.52-13.421 9.38z" fill="#1B2226"/><path d="M23.863 30.003c0 3.309 2.676 6 5.965 6 3.29 0 5.966-2.691 5.966-6 0-3.31-2.676-6.001-5.966-6.001s-5.965 2.692-5.965 6zm8.422 0a2.466 2.466 0 01-2.457 2.47 2.466 2.466 0 01-2.456-2.47 2.466 2.466 0 012.456-2.471 2.467 2.467 0 012.457 2.47zM29.828 7.648a1.76 1.76 0 001.755-1.765V1.765A1.76 1.76 0 0029.828 0a1.76 1.76 0 00-1.754 1.765v4.118a1.76 1.76 0 001.754 1.765zm10.469 2.361a1.749 1.749 0 002.394-.66l2.335-4.118a1.77 1.77 0 00-.655-2.408 1.749 1.749 0 00-2.393.659L39.643 7.6a1.771 1.771 0 00.654 2.408zm-23.331-.66a1.749 1.749 0 002.393.659 1.77 1.77 0 00.655-2.408l-2.335-4.118a1.75 1.75 0 00-2.393-.66 1.77 1.77 0 00-.655 2.409l2.335 4.118zm12.862 43.008a1.76 1.76 0 00-1.754 1.765v4.118a1.76 1.76 0 001.754 1.765 1.76 1.76 0 001.755-1.765v-4.118a1.76 1.76 0 00-1.755-1.765zM19.36 49.998a1.75 1.75 0 00-2.394.658l-2.335 4.119a1.77 1.77 0 00.655 2.407 1.75 1.75 0 002.393-.658l2.335-4.119a1.77 1.77 0 00-.655-2.407zm23.33.659a1.75 1.75 0 00-2.393-.66 1.77 1.77 0 00-.654 2.408l2.335 4.119a1.749 1.749 0 002.393.658 1.77 1.77 0 00.655-2.407l-2.335-4.118z" fill="#1B2226"/></svg>