<svg width="45" height="39" fill="none" xmlns="http://www.w3.org/2000/svg"><path fill-rule="evenodd" clip-rule="evenodd" d="M38.14 4.483h4.4c.913 0 1.651.745 1.651 1.662 0 .917-.738 1.662-1.652 1.662h-4.4c-.717 2.395-2.902 4.155-5.513 4.155-2.61 0-4.796-1.76-5.513-4.155H1.653A1.658 1.658 0 010 6.145c0-.917.74-1.662 1.652-1.662h25.461C27.83 2.088 30.016.328 32.626.328s4.796 1.76 5.514 4.155zm-7.992 1.662a2.489 2.489 0 002.478 2.493 2.489 2.489 0 002.479-2.493 2.489 2.489 0 00-2.479-2.493 2.489 2.489 0 00-2.478 2.493zm12.39 11.635h-25.46c-.717-2.396-2.902-4.156-5.513-4.156-2.61 0-4.796 1.76-5.513 4.156h-4.4C.74 17.78 0 18.524 0 19.442c0 .917.74 1.662 1.652 1.662h4.4c.717 2.395 2.903 4.155 5.513 4.155s4.796-1.76 5.513-4.155h25.46c.914 0 1.653-.745 1.653-1.662 0-.918-.739-1.662-1.652-1.662zm-30.973 4.155a2.489 2.489 0 01-2.478-2.493 2.489 2.489 0 012.478-2.494 2.489 2.489 0 012.478 2.494 2.489 2.489 0 01-2.478 2.493zm30.974 9.137h-4.4c-.715-2.395-2.903-4.155-5.513-4.155s-4.796 1.76-5.513 4.155H1.653C.74 31.072 0 31.816 0 32.734c0 .917.74 1.662 1.652 1.662h25.46c.716 2.395 2.903 4.154 5.514 4.154 2.61 0 4.796-1.76 5.513-4.154h4.4c.913 0 1.652-.745 1.652-1.662 0-.918-.739-1.662-1.652-1.662zm-9.913 4.155a2.489 2.489 0 01-2.478-2.493 2.489 2.489 0 012.478-2.493 2.489 2.489 0 012.478 2.493 2.489 2.489 0 01-2.478 2.493z" fill="#1B2226"/></svg>