<svg width="55" height="52" fill="none" xmlns="http://www.w3.org/2000/svg"><path d="M51.312 33.434l-4.304-1.965-1.232-2.002a16.667 16.667 0 007.712-14.076v-8.22a1.28 1.28 0 00-.684-1.101L41.746.152c-.373-.2-.821-.2-1.182.012L29.854 6.07a1.213 1.213 0 00-.622 1.1v8.384a16.793 16.793 0 001.443 6.919h-8.969a6.246 6.246 0 00-4.938 2.452l-4.889 6.444-8.21 2.252C1.506 34.21.013 36.186 0 38.438v3.153a5.056 5.056 0 005 5.03h.598c.92 3.353 4.378 5.318 7.712 4.38a6.264 6.264 0 004.354-4.38h18.285c.92 3.353 4.379 5.318 7.712 4.38a6.264 6.264 0 004.354-4.38h1.22c2.748-.012 4.987-2.252 5-5.03v-3.616a5.029 5.029 0 00-2.923-4.541zM31.72 7.909l9.491-5.243 9.79 5.256v7.47c-.013 5.717-3.421 10.86-8.658 13.074h-.025l-1.194.513-.97-.438c-5.125-2.264-8.434-7.357-8.434-13V7.91zM11.63 48.686c-2.09 0-3.768-1.702-3.768-3.791a3.778 3.778 0 013.769-3.792c2.09 0 3.769 1.702 3.769 3.791a3.794 3.794 0 01-3.77 3.792zm30.352 0c-2.09 0-3.769-1.702-3.769-3.791 0-2.09 1.692-3.792 3.77-3.792 2.089 0 3.768 1.702 3.768 3.791.013 2.09-1.679 3.78-3.769 3.792zm9.777-7.107h-.012a2.545 2.545 0 01-2.513 2.527H48.19c-.447-3.453-3.582-5.88-7.015-5.43-2.812.363-5.038 2.602-5.399 5.43H17.838c-.448-3.453-3.583-5.88-7.016-5.43-2.811.363-5.038 2.602-5.399 5.43h-.422a2.545 2.545 0 01-2.513-2.527v-3.153a2.513 2.513 0 011.84-2.403l8.609-2.364a1.29 1.29 0 00.671-.45l5.15-6.782a3.728 3.728 0 012.96-1.464h10.375a16.868 16.868 0 007.065 5.88l1.493.651c.311.138.672.138.995 0l1.68-.726a4.61 4.61 0 00.248-.112l1.53 2.465c.125.212.311.375.535.475l4.653 2.115a2.522 2.522 0 011.467 2.264v3.604z" fill="#1B2226"/><path d="M47.343 12.637a1.253 1.253 0 00-1.754-.2l-.012.013-5.822 4.767-2.114-2.49a1.239 1.239 0 00-1.754-.15 1.257 1.257 0 00-.15 1.764l.013.013 2.898 3.416a.166.166 0 00.038.05c.012.013.025.038.05.05l.05.05c.012.013.037.025.049.038a.259.259 0 00.062.037.17.17 0 01.05.038c.025.012.037.025.062.037a.095.095 0 00.05.026c.025.012.05.024.075.024.012.013.037.013.05.026.024.012.049.012.074.025.012 0 .037.012.05.012.025 0 .05.013.074.013.013 0 .038.012.05.012h.274c.025 0 .062-.012.087-.012.012 0 .025 0 .037-.013.025 0 .05-.012.075-.012.012 0 .025-.013.037-.013.025 0 .037-.012.062-.025.013 0 .025-.012.05-.012.012-.013.037-.013.05-.025.012-.013.037-.013.05-.026.012-.012.037-.012.05-.024a.093.093 0 01.05-.026c.012 0 .024-.025.049-.025.012-.012.025-.025.05-.037.012-.013.024-.013.037-.025l6.754-5.531a1.27 1.27 0 00.2-1.765z" fill="#1B2226"/></svg>