<svg width="64" height="64" fill="none" xmlns="http://www.w3.org/2000/svg"><g clip-path="url(#clip0)" fill="#1B2226"><path d="M49.28 1.527c-6.38 0-11.823 4.163-13.862 9.736H9.682c-.57 0-1.033.514-1.037 1.083L8.4 48.721H1.064c-.572 0-1.064.415-1.064.988v4.616a8.145 8.145 0 007.777 8.112v.023H39.79v-.03c.26.01.366.03.53.03h.022a8.144 8.144 0 008.132-8.145V30.977c.26.014.534.022.802.022C57.394 30.999 64 24.381 64 16.263S57.398 1.527 49.28 1.527zM8.17 60.386h-.006a6.099 6.099 0 01-6.091-6.072v-3.52h30.07V54.3a8.134 8.134 0 002.4 5.764c.11.108.245.192.359.322H8.17zm38.23-6.072a6.07 6.07 0 01-6.059 6.072h-.02a6.116 6.116 0 01-6.104-6.085v-4.592a.957.957 0 00-.99-.988H10.474l.238-35.384h24.13a15.59 15.59 0 00-.284 2.88 14.622 14.622 0 001.252 5.933h-9.794a1.037 1.037 0 100 2.074h10.919a14.633 14.633 0 009.466 6.494v23.597zm2.879-25.388c-6.985 0-12.648-5.663-12.648-12.648 0-6.986 5.663-12.648 12.648-12.648 6.985 0 12.647 5.663 12.647 12.648-.007 6.982-5.665 12.64-12.647 12.648z"/><path d="M19.36 29.05c-1.83 0-3.319 1.442-3.319 3.214s1.488 3.214 3.319 3.214c1.83 0 3.32-1.442 3.32-3.214s-1.49-3.213-3.32-3.213zm0 4.354c-.687 0-1.245-.511-1.245-1.14 0-.629.558-1.14 1.245-1.14.686 0 1.245.512 1.245 1.14 0 .629-.559 1.14-1.245 1.14zm5.619-1.144c0 .572.463 1.036 1.037 1.036H39.84a1.037 1.037 0 100-2.073H26.016c-.573 0-1.037.464-1.037 1.037zM19.36 20.037c-1.83 0-3.319 1.442-3.319 3.214s1.488 3.214 3.319 3.214c1.83 0 3.32-1.442 3.32-3.214s-1.49-3.214-3.32-3.214zm0 4.354c-.687 0-1.245-.512-1.245-1.14 0-.628.558-1.14 1.245-1.14.686 0 1.245.511 1.245 1.14 0 .628-.559 1.14-1.245 1.14zm0 13.672c-1.83 0-3.319 1.442-3.319 3.214s1.488 3.213 3.319 3.213c1.83 0 3.32-1.441 3.32-3.213s-1.49-3.214-3.32-3.214zm0 4.354c-.687 0-1.245-.511-1.245-1.14 0-.628.558-1.14 1.245-1.14.686 0 1.245.512 1.245 1.14 0 .628-.559 1.14-1.245 1.14zm20.48-2.121H26.016a1.037 1.037 0 100 2.074H39.84a1.037 1.037 0 000-2.074zM45.8 23v-2.14h-1.6v-1.94h1.6v-1.56h-1.6v-2.48h1.6V8.72h4.56c1.84 0 3.18.373 4.02 1.12.853.746 1.28 1.773 1.28 3.08 0 .773-.173 1.5-.52 2.18-.347.68-.927 1.226-1.74 1.64-.8.413-1.893.62-3.28.62h-1.3v1.56h3.08v1.94h-3.08V23H45.8zm4.02-8.12c.853 0 1.527-.147 2.02-.44.507-.294.76-.767.76-1.42 0-1.214-.8-1.82-2.4-1.82h-1.38v3.68h1z"/></g><defs><clipPath id="clip0"><path fill="#fff" d="M0 0h64v64H0z"/></clipPath></defs></svg>