<svg width="42" height="49" fill="none" xmlns="http://www.w3.org/2000/svg"><path d="M28.5 32.194c5.002-7.894 4.373-6.91 4.517-7.115a15.182 15.182 0 002.784-8.793C35.8 7.88 29.02.958 20.654.958c-8.339 0-15.146 6.91-15.146 15.328 0 3.167.982 6.287 2.863 8.905l4.437 7.003C8.064 32.927 0 35.112 0 39.924c0 1.754 1.138 4.253 6.56 6.201 3.786 1.36 8.791 2.109 14.094 2.109 9.917 0 20.655-2.814 20.655-8.31 0-4.813-8.055-6.995-12.808-7.73zm-17.829-8.526a1.387 1.387 0 00-.047-.07 12.477 12.477 0 01-2.362-7.312c0-6.927 5.545-12.558 12.392-12.558 6.834 0 12.393 5.633 12.393 12.558a12.42 12.42 0 01-2.262 7.172c-.133.176.559-.906-10.13 15.966L10.67 23.668zm9.983 21.796c-10.831 0-17.9-3.203-17.9-5.54 0-1.571 3.632-4.155 11.68-5.162l5.06 7.984a1.375 1.375 0 002.321 0l5.058-7.984c8.05 1.007 11.682 3.59 11.682 5.162 0 2.318-7.006 5.54-17.9 5.54z" fill="#1B2226"/><path d="M20.654 9.36c-3.796 0-6.885 3.107-6.885 6.926 0 3.818 3.089 6.925 6.885 6.925s6.885-3.107 6.885-6.925c0-3.819-3.089-6.926-6.885-6.926zm0 11.08c-2.278 0-4.13-1.863-4.13-4.154 0-2.292 1.852-4.156 4.13-4.156 2.278 0 4.13 1.864 4.13 4.156 0 2.29-1.852 4.155-4.13 4.155z" fill="#1B2226"/></svg>