<svg width="50" height="50" fill="none" xmlns="http://www.w3.org/2000/svg"><path d="M29.616 45.088c-.406.102-.82.192-1.232.268a1.993 1.993 0 00-1.586 2.323c.098.532.399.976.807 1.265.42.298.956.432 1.501.33.49-.09.983-.198 1.468-.32a1.992 1.992 0 001.443-2.414 1.98 1.98 0 00-2.4-1.452zm14.65-26.708c.139.42.403.763.738 1a1.97 1.97 0 001.765.264 1.996 1.996 0 001.258-2.518 24.84 24.84 0 00-.516-1.418 1.977 1.977 0 00-2.575-1.11 1.996 1.996 0 00-1.103 2.59c.156.39.301.791.433 1.191zm-8.213 23.862c-.349.232-.71.456-1.073.667a2 2 0 00-.152 3.355 1.973 1.973 0 002.132.097c.432-.25.861-.517 1.277-.794a2 2 0 00.56-2.761 1.973 1.973 0 00-2.744-.564zm13.205-18.299a1.986 1.986 0 00-2.057-1.913A1.989 1.989 0 0045.3 24.1c.016.42.02.847.01 1.266-.015.69.32 1.305.842 1.675.31.22.687.353 1.096.362 1.093.024 2-.848 2.023-1.948a24.9 24.9 0 00-.013-1.512zM43.942 37a1.973 1.973 0 00-2.773.399c-.252.337-.517.67-.788.99a2 2 0 00.37 2.92 1.973 1.973 0 002.647-.337c.324-.382.64-.78.94-1.183a2 2 0 00-.396-2.788zm2.912-7.203a1.979 1.979 0 00-2.482 1.305c-.126.4-.264.803-.414 1.198a1.999 1.999 0 001.146 2.57 1.977 1.977 0 002.556-1.152c.178-.469.343-.948.492-1.425a1.994 1.994 0 00-1.298-2.496zm-25.88 15.577a20.368 20.368 0 01-5.082-1.624c-.019-.01-.036-.022-.056-.031a21.556 21.556 0 01-1.131-.577 21.134 21.134 0 01-1.971-1.239c-9.319-6.602-11.56-19.6-4.995-28.973a20.645 20.645 0 015.081-5.085l.071-.05c6.786-4.703 16.001-5.02 23.208-.187l-1.548 2.25c-.43.626-.166 1.082.587 1.014l6.723-.606c.755-.068 1.206-.724 1.003-1.457l-1.805-6.543c-.203-.733-.72-.82-1.15-.195l-1.552 2.255C33.069.756 26.726-.606 20.43.492c-.634.11-1.26.245-1.876.402l-.012.003c-.024.005-.048.013-.071.02-5.43 1.402-10.166 4.587-13.545 9.13-.029.035-.058.068-.085.105a23.212 23.212 0 00-.856 1.243c-.021.031-.038.063-.056.095A24.675 24.675 0 00.025 25.98v.051c.023.5.062 1.007.116 1.505.002.033.01.063.015.095.055.502.125 1.005.212 1.507.883 5.13 3.289 9.745 6.893 13.336l.026.026.009.008a24.92 24.92 0 003.156 2.653 24.35 24.35 0 009.822 4.135 1.981 1.981 0 002.3-1.609 1.992 1.992 0 00-1.6-2.313z" fill="#1B2226"/><path d="M23.423 8.806c-.886 0-1.603.722-1.603 1.612V26.48l14.604 7.593a1.601 1.601 0 002.16-.692 1.616 1.616 0 00-.688-2.172l-12.871-6.693V10.418c0-.89-.717-1.612-1.602-1.612z" fill="#1B2226"/></svg>